<?xml version="1.0" standalone="no"?>
<!DOCTYPE svg PUBLIC "-//W3C//DTD SVG 20010904//EN" "http://www.w3.org/TR/2001/REC-SVG-20010904/DTD/svg10.dtd">
<svg version="1.0" xmlns="http://www.w3.org/2000/svg" width="100%" height="100%" viewBox="0 0 214.000000 300.000000"
    preserveAspectRatio="xMidYMid meet">
    <metadata>
        Created by potrace 1.10, written by Peter Selinger 2001-2011
    </metadata>
    <g transform="translate(0.000000,300.000000) scale(0.050000,-0.050000)" fill="currentColor" stroke="none">
        <path d="M560 5675 c-23 -80 -55 -185 -69 -235 -28 -92 -43 -181 -62 -365 -6
-58 -20 -181 -30 -275 -109 -990 158 -1856 791 -2566 390 -437 727 -611 1601
-826 520 -127 829 -422 1015 -966 79 -231 118 -275 185 -208 69 69 -10 310
-228 692 -218 384 -272 625 -282 1254 -2 193 -9 356 -13 363 -5 8 -14 66 -20
130 -84 831 -632 1496 -1678 2037 -721 372 -949 572 -1011 886 -50 254 -138
289 -199 79z m100 -371 c0 -58 85 -312 157 -468 78 -171 41 -160 -101 29 -123
164 -139 197 -116 235 12 19 25 8 45 -42 16 -37 45 -81 65 -98 20 -16 33 -21
28 -10 -5 11 -32 70 -60 130 -64 137 -83 212 -67 262 16 53 49 28 49 -38z
m240 -259 c30 -30 83 -79 118 -108 34 -29 62 -64 62 -78 0 -16 -18 -9 -46 18
-69 64 -85 52 -26 -19 29 -33 52 -74 52 -90 0 -15 8 -28 18 -28 10 0 24 -34
31 -75 7 -41 31 -122 52 -180 95 -258 -71 36 -337 600 -16 32 23 12 76 -40z
m-237 -222 c39 -66 166 -203 188 -203 5 0 10 20 10 45 1 27 53 -58 127 -205
153 -304 263 -489 369 -615 44 -52 113 -158 154 -235 40 -77 83 -151 94 -165
11 -14 15 -32 7 -39 -7 -8 -25 4 -41 26 -15 22 -75 61 -134 88 -229 105 -456
299 -642 550 -66 88 -127 163 -137 167 -10 3 -18 17 -18 30 0 13 -20 48 -45
79 l-45 56 0 -59 c0 -33 7 -55 15 -50 8 5 20 -7 27 -27 6 -20 21 -54 33 -76
12 -22 32 -59 45 -83 54 -103 247 -331 356 -421 46 -38 100 -81 119 -97 19
-16 87 -58 150 -93 63 -35 118 -71 122 -80 3 -9 14 -16 23 -16 10 0 43 -10 74
-23 31 -13 70 -22 87 -20 17 2 57 -33 90 -77 32 -45 84 -114 114 -154 72 -93
71 -129 -1 -59 -31 29 -62 48 -69 42 -24 -25 -579 310 -732 440 -65 55 -247
285 -294 371 -22 39 -43 75 -49 80 -14 14 -53 78 -98 162 -26 46 -44 134 -54
250 l-14 178 49 -60 c27 -33 80 -109 117 -168 38 -60 87 -128 109 -151 23 -23
80 -89 128 -146 48 -57 106 -110 130 -117 24 -7 48 -20 53 -29 18 -27 120 -45
120 -21 0 12 -7 22 -16 22 -83 0 -551 577 -624 771 -26 68 8 79 42 13 94 -184
298 -442 395 -499 55 -32 56 2 3 55 -22 22 -40 46 -40 53 0 8 -14 28 -30 45
-53 55 -250 337 -250 358 0 10 -13 30 -30 44 -31 26 -90 134 -90 166 0 31 56
-25 103 -103z m537 12 c55 -46 180 -385 289 -785 18 -66 38 -136 43 -155 22
-73 -34 -31 -90 70 -33 58 -67 114 -76 125 -98 116 -150 280 -82 259 43 -14
45 7 5 60 -16 21 -29 27 -29 14 0 -38 -34 -10 -46 38 -9 33 -3 38 27 29 42
-14 21 63 -55 198 -24 45 -25 54 -4 42 15 -9 9 5 -15 32 -98 111 -75 164 33
73z m241 -139 c121 -89 215 -343 269 -726 37 -256 72 -387 131 -482 49 -78 70
-88 50 -23 -8 25 -17 65 -20 88 -4 24 -13 72 -21 106 -9 40 -4 74 12 93 20 25
20 29 -3 24 -18 -4 -32 26 -44 94 -71 413 -137 633 -205 690 -55 46 -31 57 50
24 58 -25 85 -51 101 -97 12 -35 34 -74 49 -87 27 -22 82 -165 100 -260 5 -26
18 -56 28 -66 10 -10 14 -32 8 -48 -6 -16 -2 -48 10 -72 28 -60 58 -199 74
-344 7 -66 21 -165 31 -220 10 -55 23 -131 27 -170 5 -38 18 -95 30 -125 12
-30 16 -55 9 -55 -7 0 -1 -13 13 -30 14 -16 17 -30 7 -30 -23 1 -147 192 -147
227 0 16 -13 39 -30 53 -16 14 -30 34 -30 44 0 11 -17 35 -38 53 -90 79 -266
370 -257 427 4 31 2 56 -6 56 -7 0 -25 70 -39 155 -14 85 -33 164 -43 174 -9
10 -17 39 -17 64 0 24 -9 50 -20 57 -11 7 -34 63 -52 126 -18 63 -44 137 -58
164 -69 140 -58 182 31 116z m529 -268 c62 -41 180 -289 221 -465 4 -18 20
-79 36 -135 15 -56 29 -144 30 -196 1 -51 7 -102 13 -113 7 -10 16 -151 22
-312 11 -352 15 -385 46 -442 13 -25 15 -45 5 -45 -26 0 -87 98 -73 119 6 10
-6 30 -27 45 -33 23 -41 63 -53 276 -8 138 -17 256 -22 262 -4 7 -13 75 -19
150 -7 76 -25 190 -41 255 -15 64 -28 137 -28 163 0 26 -8 53 -18 58 -9 6 -28
54 -41 107 -13 52 -49 142 -80 200 -60 110 -53 127 29 73z m266 -217 c36 -48
81 -126 99 -174 18 -48 38 -91 44 -97 6 -5 26 -73 45 -150 18 -77 40 -167 48
-200 25 -104 54 -512 56 -785 0 -102 8 -185 17 -185 9 0 25 -23 35 -51 22 -56
61 -51 50 6 -4 19 -8 35 -10 35 -1 0 -5 144 -9 320 -3 176 -11 362 -17 413
-27 230 -37 296 -66 408 -16 65 -32 133 -34 149 -2 17 -11 39 -19 50 -202 269
-216 312 -52 158 111 -105 127 -133 206 -366 37 -105 73 -208 81 -227 12 -29
7 -33 -23 -21 -32 11 -33 9 -12 -18 14 -17 20 -46 13 -64 -8 -21 -4 -32 12
-28 14 3 30 -7 35 -22 7 -20 0 -25 -22 -16 -21 8 -33 3 -33 -14 0 -15 15 -26
33 -25 18 2 37 -8 42 -22 5 -15 -3 -21 -21 -14 -16 6 -34 -3 -41 -20 -7 -19
-1 -31 18 -31 30 0 32 -9 37 -128 1 -38 9 -64 17 -59 8 5 15 0 15 -11 0 -11
-9 -25 -19 -31 -21 -13 -15 -611 7 -691 l14 -50 -36 50 c-20 27 -80 96 -133
153 -54 58 -112 125 -129 151 -18 25 -44 58 -58 72 -14 15 -27 69 -28 120 -11
450 -18 599 -38 740 -12 90 -25 188 -29 219 -4 30 -17 80 -29 111 -12 31 -22
78 -22 105 0 59 -87 253 -129 288 -17 14 -31 34 -31 43 0 34 52 -6 116 -91z
m-1561 -399 c99 -149 357 -432 395 -432 15 0 30 -7 33 -15 17 -39 587 -365
638 -365 71 0 256 -115 319 -198 39 -50 124 -144 190 -207 124 -119 122 -142
-6 -77 -41 21 -81 39 -89 40 -23 3 -224 106 -435 221 -104 57 -206 108 -225
115 -19 6 -35 19 -35 28 0 10 -11 18 -25 18 -24 0 -317 192 -526 344 -102 74
-229 216 -229 255 0 11 -7 21 -16 21 -33 0 -71 144 -42 161 21 13 19 25 -11
58 -21 23 -32 47 -25 53 6 7 3 34 -7 60 -33 86 11 50 96 -80z m1999 73 c31
-31 88 -99 126 -151 39 -53 99 -133 135 -177 36 -44 65 -88 65 -98 0 -9 10
-42 23 -73 13 -31 25 -66 28 -79 3 -12 11 -50 18 -85 12 -51 8 -62 -21 -62
-34 0 -34 -1 0 -26 31 -23 35 -60 34 -314 -1 -209 5 -292 23 -304 18 -11 16
-15 -8 -16 -29 0 -34 -27 -35 -190 -1 -114 6 -190 18 -190 11 0 20 -10 20 -21
0 -12 -9 -16 -19 -9 -31 19 17 -100 58 -144 34 -36 78 -206 54 -206 -6 0 -26
32 -44 70 -19 39 -83 122 -143 185 -59 63 -122 130 -139 149 -17 18 -25 44
-17 57 49 78 4 1003 -62 1284 -8 35 -4 55 10 55 12 0 22 -16 22 -36 0 -20 7
-45 16 -55 44 -51 85 -344 87 -624 1 -91 9 -160 19 -154 27 17 21 -25 -7 -55
-35 -36 -37 -176 -2 -176 15 0 27 -10 27 -21 0 -12 -8 -16 -18 -10 -41 25 -43
-149 -2 -199 9 -11 20 -46 23 -78 8 -70 46 -91 49 -27 1 25 5 72 8 105 7 83
-19 728 -32 780 -6 23 -13 100 -16 171 -5 135 -72 348 -129 414 -43 48 -78
104 -103 160 -10 25 -28 45 -39 45 -11 0 -39 36 -61 80 -48 94 -41 100 34 25z
m-1704 -765 c86 -64 189 -134 228 -154 40 -20 75 -43 79 -51 3 -8 19 -15 34
-15 15 0 66 -25 113 -56 83 -54 112 -69 323 -163 145 -64 101 -70 -69 -10
-398 142 -883 462 -967 639 -47 101 -38 104 35 12 37 -47 138 -137 224 -202z
m2221 -15 c57 -190 109 -510 89 -536 -29 -34 11 -377 41 -358 9 5 13 30 8 54
-5 25 -13 104 -19 175 l-9 130 30 -90 c18 -56 34 -213 42 -415 13 -325 6 -366
-53 -295 -18 22 -19 30 -1 30 16 0 22 47 19 155 -4 155 -22 248 -42 213 -26
-45 -34 -127 -15 -139 13 -8 17 -43 9 -90 -18 -107 8 -309 36 -281 12 12 28
22 36 22 11 0 58 -216 58 -269 0 -35 -57 34 -69 84 -8 29 -36 73 -62 98 -45
41 -49 62 -52 231 -4 209 -6 279 -25 712 -11 267 -45 527 -83 647 -6 20 -3 37
8 37 11 0 36 -52 54 -115z m-2255 -134 c36 -38 117 -98 180 -133 62 -35 128
-75 144 -89 17 -13 63 -36 104 -50 54 -19 69 -33 55 -50 -15 -18 -3 -23 45
-20 37 2 75 -2 86 -10 34 -25 395 -118 413 -107 9 6 17 2 17 -9 0 -17 151 -50
337 -72 106 -13 296 -167 275 -224 -6 -15 2 -27 20 -27 35 0 138 -97 120 -114
-6 -7 -28 1 -47 18 -19 17 -89 45 -155 62 -142 36 -547 143 -660 174 -121 33
-288 101 -403 164 -57 31 -118 56 -136 56 -18 0 -28 8 -22 18 6 10 -19 33 -54
51 -128 66 -150 83 -234 170 -77 80 -181 224 -181 251 0 26 37 4 96 -59z m339
-495 c46 -32 118 -70 160 -84 41 -15 111 -45 155 -67 261 -131 713 -253 1155
-313 20 -2 51 -25 70 -49 19 -25 51 -64 70 -87 19 -23 30 -48 23 -54 -6 -7
-22 2 -35 18 -12 17 -99 46 -193 66 -194 41 -470 95 -533 104 -23 3 -65 21
-93 39 -39 26 -53 28 -62 7 -9 -20 -14 -21 -24 -1 -6 14 -20 25 -31 25 -11 0
-13 -10 -5 -23 9 -14 5 -18 -9 -9 -13 8 -23 27 -23 43 0 16 -7 27 -15 25 -59
-13 -485 169 -485 208 0 9 -13 16 -28 16 -28 0 -151 110 -212 189 -35 46 -23
40 115 -53z m1882 -158 c-3 -43 -14 -78 -26 -78 -13 0 -18 35 -14 90 9 110 46
99 40 -12z m1 -203 c-2 -72 -4 -77 -18 -35 -23 72 -23 120 0 120 11 0 19 -38
18 -85z m-1315 -104 c161 -59 322 -99 667 -161 392 -72 490 -96 490 -122 0
-13 14 -29 30 -35 34 -13 41 -73 9 -73 -12 0 -15 10 -7 23 9 14 5 18 -8 9 -12
-7 -55 0 -95 17 -41 17 -113 32 -162 34 -65 3 -86 11 -79 30 13 34 -21 36 -35
2 -7 -18 -20 -14 -42 14 -17 21 -31 28 -31 14 0 -32 -173 -11 -290 35 -22 9
-114 30 -204 48 -176 33 -381 124 -471 210 -77 73 -68 94 20 45 41 -22 135
-63 208 -90z m747 -360 c66 -16 183 -35 260 -42 216 -22 217 -22 265 -37 25
-8 45 -21 45 -30 0 -8 19 -35 42 -60 64 -68 31 -81 -62 -24 -51 32 -221 82
-410 122 -99 21 -234 53 -300 71 -66 18 -140 38 -165 43 -25 6 -50 18 -55 26
-9 15 148 -14 380 -69z" />
        <path d="M1100 3868 c0 -7 23 -34 50 -60 28 -25 50 -38 50 -27 0 10 10 19 21
19 12 0 15 -10 7 -23 -17 -28 104 -138 150 -135 26 1 26 3 3 13 -54 21 -112
95 -105 133 7 31 -1 36 -44 27 -51 -9 -72 12 -31 32 11 5 9 7 -5 4 -15 -3 -42
3 -61 12 -19 10 -35 12 -35 5z" />
        <path d="M640 3687 c0 -76 206 -292 284 -298 54 -4 44 24 -24 64 -33 20 -60
46 -60 58 0 34 -71 92 -90 74 -9 -8 -11 -6 -5 6 7 11 6 29 -1 40 -19 27 -104
72 -104 56z" />
        <path d="M1587 2491 c4 -12 22 -18 40 -15 18 3 33 -3 33 -14 0 -12 15 -15 33
-8 21 8 29 5 20 -9 -7 -11 0 -26 16 -32 16 -6 31 -2 35 9 4 11 27 1 51 -22 25
-23 45 -32 45 -21 0 24 58 6 103 -33 25 -22 37 -23 48 -5 10 17 20 14 34 -11
16 -28 23 -30 37 -7 15 23 21 23 36 -1 10 -15 32 -22 49 -16 18 7 37 3 44 -7
6 -11 21 -14 31 -8 11 7 32 2 48 -11 16 -13 37 -18 47 -12 10 6 30 -2 43 -18
13 -16 33 -25 42 -19 10 6 29 4 43 -4 49 -31 94 -28 82 4 -18 45 -165 115
-257 121 -96 7 -132 14 -163 34 -13 8 -38 9 -55 2 -18 -7 -32 -4 -32 6 0 9
-16 19 -35 21 -109 12 -185 32 -185 48 0 10 -21 12 -47 6 -28 -7 -59 -1 -75
16 -33 31 -122 36 -111 6z" />
    </g>
</svg>