<?xml version="1.0" standalone="no"?>
<!DOCTYPE svg PUBLIC "-//W3C//DTD SVG 20010904//EN" "http://www.w3.org/TR/2001/REC-SVG-20010904/DTD/svg10.dtd">
<svg version="1.0" xmlns="http://www.w3.org/2000/svg" width="100%" height="100%" viewBox="0 0 300.000000 90.000000"
    preserveAspectRatio="xMidYMid meet">
    <metadata>
        Created by potrace 1.10, written by Peter Selinger 2001-2011
    </metadata>
    <g transform="translate(0.000000,90.000000) scale(0.100000,-0.100000)" fill="currentColor" stroke="none">
        <path d="M1456 730 c-14 -17 -29 -43 -32 -57 -7 -26 2 -160 12 -200 10 -38
-10 -25 -30 18 -16 36 -85 99 -108 99 -4 0 -8 -17 -8 -38 0 -43 30 -93 97
-163 41 -42 45 -52 54 -120 11 -77 21 -99 46 -99 11 0 12 6 6 23 -4 12 -8 50
-8 84 l0 62 82 78 c65 62 83 86 88 115 13 72 -12 70 -95 -8 -42 -39 -57 -63
-86 -139 -7 -18 -8 -18 -11 5 -2 14 10 65 27 114 32 95 37 152 19 207 -17 51
-24 53 -53 19z m29 -101 c-4 -21 -11 -39 -16 -39 -5 0 -9 -8 -10 -17 -1 -12
-3 -10 -8 6 -3 13 -4 42 -2 65 5 40 5 40 12 11 6 -29 7 -28 8 10 1 33 3 37 12
22 6 -10 8 -35 4 -58z m-102 -161 c40 -56 41 -81 2 -33 -34 44 -57 85 -47 85
5 0 25 -23 45 -52z m196 3 c-31 -36 -59 -57 -59 -45 0 9 83 94 88 89 3 -2 -10
-22 -29 -44z" />
        <path d="M600 610 c0 -70 43 -125 140 -180 l55 -32 -40 6 c-22 3 -63 6 -92 6
-44 0 -61 6 -115 43 -35 24 -82 51 -106 60 -43 17 -132 24 -132 10 2 -30 100
-103 139 -103 38 0 72 -11 66 -21 -3 -4 -11 -6 -18 -4 -7 2 -37 6 -68 9 -31 3
-84 13 -118 22 -58 16 -64 16 -123 0 -70 -19 -112 -42 -103 -56 3 -5 36 -19
73 -30 72 -22 112 -21 187 8 22 8 72 19 110 23 39 4 84 11 100 15 55 12 13
-12 -60 -34 -73 -23 -168 -79 -179 -107 -22 -58 146 -6 244 75 59 50 103 60
220 51 75 -6 89 -9 65 -15 -16 -5 -72 -28 -122 -53 -67 -32 -104 -57 -133 -90
-22 -25 -40 -50 -40 -56 0 -18 88 2 152 33 34 17 90 55 125 84 69 59 113 74
173 56 50 -15 123 -13 118 3 -3 6 -15 13 -29 15 -29 4 -208 48 -229 57 -8 3
-26 24 -40 46 -34 56 -95 116 -157 156 -29 18 -55 33 -58 33 -3 0 -5 -14 -5
-30z m140 -110 c41 -38 70 -69 64 -70 -14 0 -146 111 -152 128 -8 25 15 10 88
-58z m-281 -36 c74 -32 82 -52 10 -23 -60 23 -89 38 -89 44 0 10 20 4 79 -21z
m-170 -68 c-10 -8 -119 -14 -114 -5 4 5 31 9 62 9 31 0 54 -2 52 -4z m51 -15
c0 -13 -39 -21 -105 -20 l-60 2 75 12 c41 7 78 13 83 14 4 0 7 -3 7 -8z m205
-41 c-10 -16 -125 -72 -138 -67 -7 3 22 21 63 41 82 40 84 40 75 26z m235 -64
c-20 -19 -153 -87 -159 -81 -7 8 28 32 94 65 66 32 87 38 65 16z" />
        <path d="M1975 592 c-78 -37 -112 -67 -175 -152 -45 -60 -58 -72 -108 -90 -31
-11 -76 -27 -99 -36 -48 -17 -62 -32 -43 -44 8 -5 48 4 96 21 45 16 100 29
122 29 56 0 129 -25 171 -58 59 -47 122 -80 186 -96 119 -31 134 -14 58 62
-64 63 -123 91 -219 101 -75 8 -72 8 61 9 164 1 185 -5 275 -74 36 -27 79 -56
95 -63 33 -14 175 -28 175 -17 0 38 -99 97 -220 131 -36 10 -68 21 -72 24 -4
3 50 5 120 3 89 -2 150 -9 202 -24 52 -14 92 -19 130 -15 59 5 171 45 173 62
3 17 -115 54 -173 54 -31 1 -77 -7 -105 -18 -46 -17 -215 -39 -215 -28 0 3 30
14 68 26 115 35 191 121 107 121 -50 0 -100 -23 -159 -74 -75 -63 -90 -69
-201 -73 -105 -3 -105 -3 -12 35 46 19 93 70 119 130 30 67 14 73 -76 29 -60
-30 -84 -50 -131 -107 -32 -39 -66 -75 -76 -80 -10 -6 -55 -10 -101 -9 -46 0
-95 -4 -110 -10 -17 -6 -29 -7 -33 -1 -4 6 -1 10 4 10 6 0 43 19 82 43 92 55
159 136 159 193 0 19 -6 18 -75 -14z m-8 -64 c-16 -12 -24 -24 -19 -27 5 -3
-2 -15 -17 -25 l-26 -20 19 22 c31 35 4 25 -37 -14 -37 -36 -63 -41 -36 -8 22
28 131 105 138 98 3 -3 -7 -15 -22 -26z m313 8 c0 -7 -117 -96 -125 -96 -13 0
19 33 65 66 42 31 60 40 60 30z m-33 -64 c-21 -23 -97 -66 -97 -55 0 9 90 71
104 72 5 1 2 -7 -7 -17z m303 0 c0 -4 -25 -20 -55 -35 -67 -33 -74 -17 -7 17
51 27 62 30 62 18z m245 -92 c4 -6 -19 -10 -61 -10 -37 0 -64 -3 -60 -7 4 -5
35 -6 68 -4 42 2 58 0 54 -8 -4 -7 -40 -11 -89 -10 -55 0 -75 3 -62 9 17 7 16
9 -9 9 -42 1 -28 9 35 20 76 12 117 13 124 1z m-672 -146 c48 -32 40 -45 -11
-17 -20 11 -53 26 -72 32 -19 6 -48 22 -65 36 l-30 24 70 -25 c39 -13 87 -36
108 -50z m279 30 c38 -14 68 -30 68 -35 0 -10 -129 36 -144 51 -16 16 4 12 76
-16z m-312 -49 c14 -8 21 -14 15 -14 -5 0 -21 6 -35 14 -14 8 -20 14 -15 14 6
0 21 -6 35 -14z" />
        <path d="M914 575 c-12 -30 7 -84 47 -128 47 -54 101 -90 122 -81 16 6 84 -53
72 -64 -3 -3 -11 0 -16 8 -8 11 -12 12 -16 3 -2 -7 -16 -13 -29 -13 -58 0
-237 -122 -219 -150 12 -19 95 -7 157 23 29 15 75 44 102 67 55 46 69 48 161
19 50 -15 70 -18 79 -9 15 15 -2 25 -100 55 -91 28 -147 70 -187 138 -29 49
-90 108 -137 132 -27 14 -31 14 -36 0z m85 -77 c43 -37 63 -66 34 -49 -35 21
-98 81 -84 81 7 0 30 -14 50 -32z m26 -56 c20 -18 34 -36 31 -40 -4 -3 -28 16
-54 42 -51 53 -37 51 23 -2z m125 -156 c0 -2 -29 -18 -65 -37 -36 -18 -60 -36
-54 -39 5 -4 -8 -14 -31 -23 -37 -14 -40 -14 -40 2 0 11 28 31 83 58 74 38
107 50 107 39z" />
    </g>
</svg>