<svg width="80" height="80" viewBox="0 0 80 80" fill="none" xmlns="http://www.w3.org/2000/svg">
    <rect width="80" height="80" rx="16" fill="#025345" />
    <path
        d="M34.1641 58.2C34.1641 59.9067 34.3774 61.16 34.8041 61.96C35.2307 62.7067 36.0307 63.24 37.2041 63.56C38.4307 63.88 40.3774 64.04 43.0441 64.04C43.2041 64.04 43.2841 64.2 43.2841 64.52C43.2841 64.84 43.2041 65 43.0441 65C40.8574 65 39.1507 64.9733 37.9241 64.92L30.9641 64.84L25.4441 64.92C24.4307 64.9733 23.0707 65 21.3641 65C21.2041 65 21.1241 64.84 21.1241 64.52C21.1241 64.2 21.2041 64.04 21.3641 64.04C23.2841 64.04 24.6707 63.9067 25.5241 63.64C26.3774 63.3733 26.9641 62.8667 27.2841 62.12C27.6041 61.32 27.7641 60.12 27.7641 58.52V21.48C27.7641 19.88 27.6041 18.7067 27.2841 17.96C26.9641 17.2133 26.3507 16.7067 25.4441 16.44C24.5907 16.12 23.2307 15.96 21.3641 15.96C21.2041 15.96 21.1241 15.8 21.1241 15.48C21.1241 15.16 21.2041 15 21.3641 15L25.3641 15.08C27.7107 15.1867 29.5507 15.24 30.8841 15.24C32.1641 15.24 33.6841 15.16 35.4441 15C36.0841 15 37.0707 14.9733 38.4041 14.92C39.7907 14.8133 40.9907 14.76 42.0041 14.76C47.0174 14.76 51.0441 15.88 54.0841 18.12C57.1241 20.3067 58.6441 23.64 58.6441 28.12C58.6441 31.5867 57.7641 34.52 56.0041 36.92C54.2974 39.32 52.0841 41.1067 49.3641 42.28C46.6974 43.4533 43.9241 44.04 41.0441 44.04C39.4974 44.04 38.2174 43.9067 37.2041 43.64C37.0441 43.64 36.9641 43.5067 36.9641 43.24C36.9641 43.08 36.9907 42.92 37.0441 42.76C37.1507 42.6 37.2574 42.5467 37.3641 42.6C38.2174 42.8133 39.1507 42.92 40.1641 42.92C43.3641 42.92 46.0574 41.7733 48.2441 39.48C50.4307 37.1867 51.5241 33.88 51.5241 29.56C51.5241 25.3467 50.4574 22.0667 48.3241 19.72C46.1907 17.32 43.3641 16.12 39.8441 16.12C38.1907 16.12 36.9907 16.2533 36.2441 16.52C35.4974 16.7333 34.9641 17.24 34.6441 18.04C34.3241 18.7867 34.1641 19.9867 34.1641 21.64V58.2Z"
        fill="#D49F11" />
</svg>