<?xml version="1.0" standalone="no"?>
<!DOCTYPE svg PUBLIC "-//W3C//DTD SVG 20010904//EN"
 "http://www.w3.org/TR/2001/REC-SVG-20010904/DTD/svg10.dtd">
<svg version="1.0" xmlns="http://www.w3.org/2000/svg"
 width="100%" height="100%" viewBox="0 0 300.000000 108.000000"
 preserveAspectRatio="xMidYMid meet">
<metadata>
Created by potrace 1.10, written by Peter Selinger 2001-2011
</metadata>
<g transform="translate(0.000000,108.000000) scale(0.100000,-0.100000)"
fill="currentColor" stroke="none">
<path d="M1344 736 c-42 -36 -69 -86 -79 -147 -5 -35 -39 -78 -51 -66 -3 3 0
15 6 27 7 13 9 37 5 57 -9 49 -37 41 -49 -15 -7 -35 -6 -46 9 -62 10 -11 16
-20 14 -21 -137 -25 -321 -11 -342 27 -18 33 -71 86 -101 101 -41 21 -125 43
-131 34 -6 -10 93 -105 130 -124 l30 -16 -37 -1 c-32 0 -45 8 -95 59 -49 50
-66 61 -112 70 -30 6 -56 9 -59 6 -3 -3 21 -33 54 -66 41 -42 72 -64 104 -74
l45 -14 -59 0 c-54 -1 -60 2 -85 31 -81 97 -141 138 -126 86 16 -53 49 -91 99
-114 l51 -23 -45 0 c-43 -1 -47 2 -125 84 -63 65 -88 85 -108 85 -32 0 -32 0
-7 -49 18 -36 53 -72 96 -97 15 -9 9 -11 -31 -7 -52 4 -135 -15 -138 -32 -3
-14 101 -44 154 -44 27 -1 75 10 114 24 40 15 65 21 63 14 -2 -7 -23 -18 -47
-25 -24 -7 -54 -23 -68 -36 -35 -32 -85 -106 -76 -111 11 -7 73 15 114 39 19
11 51 46 72 77 32 49 43 58 89 72 28 8 53 13 55 12 2 -2 -14 -15 -35 -28 -20
-13 -45 -40 -54 -59 -38 -79 -60 -131 -56 -136 3 -2 25 9 49 26 48 31 115 119
128 166 10 39 47 46 156 32 l90 -12 -62 -7 c-34 -4 -72 -13 -85 -20 -33 -17
-78 -60 -94 -91 -16 -31 -19 -68 -5 -68 5 0 40 32 78 71 58 61 112 99 139 99
4 0 -11 -16 -33 -35 -47 -40 -75 -100 -65 -138 12 -44 48 -77 85 -77 62 0 101
55 70 100 -17 24 -51 26 -60 4 -8 -22 15 -43 27 -24 8 12 10 9 10 -11 0 -15
-7 -29 -16 -33 -71 -27 -111 52 -61 124 50 74 89 85 347 96 88 4 160 11 160
15 0 10 -35 13 -90 10 -23 -2 -31 1 -25 7 16 15 116 49 168 57 41 6 53 4 86
-18 32 -21 43 -38 61 -92 21 -63 51 -109 95 -147 30 -26 36 -22 29 25 -16 117
-49 170 -134 217 l-55 31 45 -6 c25 -4 71 -16 103 -27 62 -23 87 -48 127 -128
12 -25 30 -53 39 -64 15 -17 133 -76 152 -76 13 0 -29 100 -57 137 -14 18 -43
43 -64 55 -22 13 -40 25 -40 28 0 3 32 5 72 5 48 0 73 4 76 13 6 20 -66 44
-128 42 -98 -5 -124 -3 -155 10 l-30 13 53 8 c54 7 87 23 122 61 33 35 25 41
-50 36 -58 -4 -80 -12 -137 -46 -55 -33 -80 -41 -130 -44 -35 -2 -63 -3 -63
-2 0 1 24 16 53 32 28 16 68 46 86 66 l35 36 -47 0 c-64 0 -113 -27 -169 -92
-26 -29 -66 -64 -90 -77 l-43 -24 33 38 c37 41 67 104 78 160 8 44 -2 44 -52
1z m17 -34 c-11 -37 -48 -109 -60 -117 -21 -12 -4 65 22 104 32 48 49 54 38
13z m215 -1 c-8 -12 -147 -94 -152 -89 -6 7 58 65 91 82 33 17 70 21 61 7z
m230 -49 c-16 -19 -94 -48 -103 -39 -2 3 -18 1 -34 -3 -36 -11 -29 6 9 22 35
14 113 36 131 37 11 1 10 -3 -3 -17z m-1056 -38 c17 -3 80 -73 80 -89 -1 -5
-13 4 -27 20 -15 17 -30 29 -35 27 -12 -3 -98 57 -98 69 0 5 15 2 33 -8 17 -9
39 -18 47 -19z m-176 -4 c4 0 4 5 1 10 -12 20 6 9 45 -26 22 -20 40 -41 40
-46 0 -7 -5 -6 -13 1 -8 6 -16 8 -19 6 -3 -3 -27 15 -54 41 -27 26 -40 39 -28
30 11 -9 24 -16 28 -16z m-205 -34 c45 -48 58 -66 48 -66 -1 0 -29 27 -62 60
-33 33 -55 60 -49 60 6 0 34 -24 63 -54z m131 -31 c-1 -5 -12 4 -25 20 -14 17
-25 35 -25 40 1 6 12 -3 25 -20 14 -16 25 -34 25 -40z m1415 -15 c8 -13 -95
-13 -115 0 -11 7 3 10 47 10 34 0 65 -4 68 -10z m-279 -86 c13 -30 26 -54 29
-54 3 0 1 9 -5 19 -13 26 -12 41 1 18 6 -10 12 -28 14 -40 1 -12 6 -31 11 -41
13 -34 -14 -8 -41 37 -30 53 -59 130 -44 121 6 -4 22 -31 35 -60z m187 4 c19
-29 45 -62 58 -73 17 -14 16 -11 -5 13 -16 17 -26 35 -23 39 4 3 0 15 -10 25
-9 10 -12 18 -7 18 16 0 92 -83 103 -112 11 -30 1 -37 -19 -14 -6 8 -17 13
-24 10 -8 -3 -21 3 -31 13 -19 18 -85 118 -85 128 0 14 12 1 43 -47z m-1434
36 c18 -4 31 -13 31 -22 0 -12 -11 -14 -67 -8 -36 4 -74 11 -82 17 -11 7 0 9
39 4 39 -4 51 -2 40 5 -17 11 -5 13 39 4z m301 -8 c0 -11 -58 -74 -64 -69 -6
6 -10 -11 -7 -33 1 -6 -8 -19 -19 -29 -19 -17 -19 -17 -10 15 10 36 22 53 64
93 29 26 36 31 36 23z m95 -78 c-22 -24 -41 -45 -42 -47 -2 -2 -6 -1 -9 2 -7
7 68 87 82 87 4 0 -10 -19 -31 -42z m-301 -9 c-25 -28 -79 -59 -101 -59 -4 0
13 20 37 45 25 25 50 43 57 41 7 -3 15 -1 19 5 3 6 9 8 12 5 3 -4 -8 -20 -24
-37z"/>
<path d="M1320 660 c-23 -44 -27 -65 -7 -35 17 26 38 75 32 75 -3 0 -14 -18
-25 -40z"/>
<path d="M1495 670 c-39 -26 -25 -26 17 0 18 11 29 20 23 20 -5 0 -23 -9 -40
-20z"/>
<path d="M1740 643 c-8 -2 -21 -7 -29 -9 -8 -2 -12 -7 -9 -9 3 -3 22 1 44 9
35 13 30 21 -6 9z"/>
<path d="M599 586 c26 -28 31 -31 31 -17 0 5 -12 17 -27 26 l-28 18 24 -27z"/>
<path d="M1890 395 c19 -19 36 -35 39 -35 3 0 -10 16 -29 35 -19 19 -36 35
-39 35 -3 0 10 -16 29 -35z"/>
<path d="M444 378 l-29 -33 33 29 c30 28 37 36 29 36 -2 0 -16 -15 -33 -32z"/>
<path d="M2280 675 c0 -3 16 -37 35 -75 19 -38 35 -71 35 -72 0 -2 -16 -4 -36
-5 -19 -1 -41 -6 -47 -11 -7 -6 -92 -13 -191 -17 -222 -9 -213 -25 15 -25 140
0 169 -3 180 -16 9 -11 23 -14 47 -11 30 5 32 4 26 -16 -3 -12 -20 -46 -36
-75 -17 -29 -28 -55 -26 -57 2 -3 67 23 143 56 121 53 177 71 369 120 21 6 35
14 30 19 -5 4 -53 20 -106 34 -125 34 -283 89 -363 127 -63 29 -75 33 -75 24z
m110 -67 c47 -22 172 -64 310 -106 28 -8 -3 -10 -146 -11 l-181 -1 0 25 c0 24
2 25 71 26 81 1 57 16 -29 18 -45 1 -52 4 -70 34 -26 43 -29 50 -19 45 5 -2
34 -16 64 -30z m-75 -118 c-3 -5 -1 -10 6 -10 10 0 10 -3 2 -11 -6 -6 -16 -8
-22 -5 -17 11 -13 36 5 36 8 0 12 -4 9 -10z m200 -20 c-4 -7 2 -9 19 -4 16 4
26 2 26 -5 0 -6 7 -11 16 -11 9 0 12 5 8 12 -5 7 -3 8 5 3 18 -11 6 -18 -89
-55 -47 -18 -101 -41 -121 -51 -36 -18 -37 -18 -32 1 7 28 33 47 99 75 32 13
55 24 49 25 -5 0 -3 5 5 10 19 13 23 12 15 0z m-62 -13 c-3 -5 -11 -6 -19 -3
-8 3 -14 2 -14 -3 0 -4 -11 -13 -25 -19 -30 -14 -32 -6 -5 18 20 17 73 23 63
7z"/>
<path d="M2463 427 c-40 -17 -71 -32 -70 -34 4 -3 149 46 155 52 2 2 0 5 -5 8
-4 2 -41 -10 -80 -26z"/>
<path d="M1417 494 c-11 -11 3 -24 27 -24 28 0 46 -18 46 -46 0 -40 -56 -61
-68 -25 -3 8 0 11 6 7 6 -3 13 -2 17 4 11 17 -26 24 -42 8 -24 -25 -1 -58 40
-58 38 0 50 7 66 37 17 33 14 51 -14 78 -23 23 -64 33 -78 19z"/>
</g>
</svg>
