<svg xmlns="http://www.w3.org/2000/svg" viewBox="0 0 222 58" fill="none">
    <path fill="currentColor"
        d="M9.15 52.81q0 .448.099.658.098.195.364.28.28.084.882.084.042 0 .042.084t-.042.084q-.574 0-.896-.014l-1.218-.014-1.022.014q-.28.015-.756.014-.042 0-.042-.084t.042-.084q.448 0 .644-.07a.42.42 0 0 0 .28-.266q.07-.21.07-.63v-6.482q0-.42-.07-.616a.42.42 0 0 0-.28-.266q-.21-.084-.644-.084-.042 0-.042-.084t.042-.084l.742.014q.644.028 1.022.028.336 0 .798-.042.182-.015.462-.028t.644-.014q1.428 0 2.254.602.825.588.826 1.834 0 .868-.448 1.47a2.8 2.8 0 0 1-1.162.91 3.55 3.55 0 0 1-1.442.308q-.378 0-.658-.07-.028 0-.028-.07 0-.042.014-.084.028-.042.056-.028.21.056.476.056.645 0 1.064-.602.434-.601.434-1.708t-.476-1.708q-.462-.602-1.358-.602-.392 0-.532.182t-.14.714zm11.52 1.358q-1.303 0-2.325-.602a4.3 4.3 0 0 1-1.568-1.652 4.9 4.9 0 0 1-.546-2.282q0-1.442.728-2.464a4.55 4.55 0 0 1 1.862-1.554 5.6 5.6 0 0 1 2.338-.518q1.33 0 2.338.63 1.008.616 1.54 1.638.546 1.022.546 2.17 0 1.275-.672 2.338a4.8 4.8 0 0 1-1.806 1.68 5 5 0 0 1-2.436.616m.461-.35q.785 0 1.4-.448.63-.462.98-1.33.35-.882.35-2.1 0-1.288-.392-2.296-.392-1.021-1.134-1.596-.742-.574-1.736-.574-1.275 0-1.96.966-.686.952-.686 2.674 0 1.357.406 2.436.42 1.065 1.134 1.666a2.5 2.5 0 0 0 1.638.602m8.59-8.246.407.028-.154 6.622q-.014.755.294 1.19.322.42.896.42.042 0 .042.084t-.042.084q-.378 0-.588-.014l-.77-.014-.882.014q-.224.015-.602.014-.042 0-.042-.084t.042-.084q.574 0 .91-.434.335-.434.35-1.176zm9.885 8.26q.028 0 .028.084t-.028.084q-.476 0-.756-.014l-1.036-.014-1.05.014q-.266.015-.728.014-.042 0-.042-.084t.042-.084q.448 0 .658-.07a.46.46 0 0 0 .294-.28q.07-.196.042-.616l-.322-6.216.714-1.12-3.57 8.372q-.028.056-.112.056t-.112-.056l-3.934-7.49q-.28-.518-.588-.756a1.06 1.06 0 0 0-.686-.238q-.042 0-.042-.084t.042-.084l.658.014q.196.014.504.014l.742-.014q.126-.015.322-.014.182 0 .28.126t.364.602l3.136 5.88-.7 1.26 3.276-7.518a.7.7 0 0 1 .168-.266.37.37 0 0 1 .252-.084q.126 0 .28.014.168.014.378.014l.826-.014q.195-.015.56-.014.042 0 .042.084t-.042.084q-.658 0-.952.266t-.266.826l.336 6.356q.028.435.098.63.084.196.28.266.21.07.644.07m7.146.336q-1.302 0-2.324-.602a4.3 4.3 0 0 1-1.568-1.652 4.9 4.9 0 0 1-.546-2.282q0-1.442.728-2.464a4.55 4.55 0 0 1 1.862-1.554 5.6 5.6 0 0 1 2.338-.518q1.33 0 2.338.63 1.008.616 1.54 1.638.546 1.022.546 2.17 0 1.275-.672 2.338a4.8 4.8 0 0 1-1.806 1.68 5 5 0 0 1-2.436.616m.462-.35q.785 0 1.4-.448.63-.462.98-1.33.35-.882.35-2.1 0-1.288-.392-2.296-.392-1.021-1.134-1.596-.743-.574-1.736-.574-1.275 0-1.96.966-.687.952-.686 2.674 0 1.357.406 2.436.42 1.065 1.134 1.666a2.5 2.5 0 0 0 1.638.602m12.79-8.722q.66 0 1.33.112.687.098 1.093.266.126.042.154.112a.44.44 0 0 1 .056.21l.182 1.946q0 .042-.07.056t-.098-.042q-.393-1.148-1.12-1.75-.73-.615-1.75-.616-.952 0-1.708.518-.742.504-1.176 1.456-.42.953-.42 2.226 0 1.288.434 2.268.447.966 1.218 1.498.783.518 1.792.518.966 0 1.624-.518.658-.532 1.246-1.736.014-.042.084-.028t.07.056l-.21 1.736a1 1 0 0 1-.056.224q-.029.041-.154.098a7.7 7.7 0 0 1-2.604.462q-1.5 0-2.688-.56-1.176-.575-1.848-1.596t-.672-2.324q0-1.33.686-2.366.699-1.05 1.904-1.638 1.218-.588 2.702-.588m13.217 7.714q0 .448.098.658.099.195.364.28.28.084.882.084.042 0 .042.084t-.042.084q-.573 0-.896-.014l-1.218-.014-1.022.014q-.28.015-.756.014-.042 0-.042-.084t.042-.084q.448 0 .644-.07a.42.42 0 0 0 .28-.266q.07-.21.07-.63v-6.482q0-.42-.07-.616a.42.42 0 0 0-.28-.266q-.21-.084-.644-.084-.042 0-.042-.084t.042-.084l.742.014q.644.028 1.022.028.336 0 .798-.042.181-.015.462-.028.28-.014.644-.014 1.428 0 2.254.602.826.588.826 1.834 0 .868-.448 1.47a2.8 2.8 0 0 1-1.162.91 3.55 3.55 0 0 1-1.442.308q-.378 0-.658-.07-.028 0-.028-.07 0-.042.014-.084.028-.042.056-.028.21.056.476.056.645 0 1.064-.602.435-.601.434-1.708 0-1.106-.476-1.708-.462-.602-1.358-.602-.392 0-.532.182t-.14.714zm8.83-6.146q0 .504.252.896.266.392.644.686t1.022.714q.7.448 1.12.784.42.337.714.826.294.476.294 1.106 0 .728-.392 1.302-.39.56-1.092.882a3.7 3.7 0 0 1-1.54.308q-.615 0-1.316-.168-.686-.182-.924-.392a1 1 0 0 1-.112-.098.4.4 0 0 1-.028-.168l-.042-2.226v-.014q0-.056.07-.056.07-.014.084.042.42.854.728 1.386.322.532.798.938.49.405 1.106.406.561 0 .924-.294.364-.307.364-1.036 0-.615-.28-1.078a2.8 2.8 0 0 0-.658-.784q-.39-.322-1.078-.77-.672-.435-1.05-.742a3 3 0 0 1-.63-.742 1.9 1.9 0 0 1-.266-1.022q0-.742.42-1.246.434-.518 1.106-.756.672-.252 1.414-.252.49 0 .994.098.504.084.812.21.126.056.168.126a.25.25 0 0 1 .042.154v2.058q0 .042-.07.07-.069.014-.084-.028l-.112-.266a6.1 6.1 0 0 0-.826-1.498q-.462-.615-1.302-.616-.559 0-.924.322-.35.322-.35.938m12.623.518q.378-.63.378-1.078 0-.336-.21-.504-.196-.182-.573-.182-.043 0-.043-.084t.043-.084l.741.014q.645.028 1.148.028.239 0 .575-.028l.517-.014q.029 0 .028.084 0 .084-.028.084-.434 0-1.064.546-.63.532-1.12 1.344l-1.82 3.038-.293-.238zm-4.662-.322q-.517-.812-.868-1.12-.336-.322-.574-.322-.04 0-.041-.084 0-.084.041-.084l.434.014q.308.028.434.028.49 0 1.415-.028l.924-.014q.028 0 .028.084t-.029.084a.6.6 0 0 0-.377.112.38.38 0 0 0-.127.294q0 .225.197.532l2.016 3.178-1.344.63zm3.599 2.674v3.332q0 .435.07.63a.42.42 0 0 0 .266.266q.21.07.657.07.043 0 .043.084t-.043.084q-.462 0-.728-.014l-1.05-.014-1.035.014q-.281.015-.757.014-.027 0-.028-.084 0-.084.028-.084.449 0 .658-.07a.42.42 0 0 0 .28-.266q.084-.21.085-.63V49.66zm10.805-4.438q.658 0 1.33.112.687.098 1.092.266.126.042.154.112a.44.44 0 0 1 .056.21l.182 1.946q0 .042-.07.056t-.098-.042q-.391-1.148-1.12-1.75-.727-.615-1.75-.616-.951 0-1.708.518-.741.504-1.176 1.456-.42.953-.42 2.226 0 1.288.434 2.268.449.966 1.218 1.498.784.518 1.792.518.966 0 1.624-.518.658-.532 1.246-1.736.015-.042.084-.028.07.014.07.056l-.21 1.736a1 1 0 0 1-.056.224q-.027.041-.154.098a7.7 7.7 0 0 1-2.604.462q-1.497 0-2.688-.56-1.176-.575-1.848-1.596t-.672-2.324q0-1.33.686-2.366.7-1.05 1.904-1.638 1.218-.588 2.702-.588m12.834 1.316q0-.42-.084-.616a.5.5 0 0 0-.322-.294q-.239-.084-.756-.084-.042 0-.042-.084t.042-.084l.686.014q.699.028 1.26.028.378 0 1.078-.028l.784-.014q.042 0 .042.084t-.042.084q-.477 0-.714.084a.47.47 0 0 0-.308.266q-.07.196-.07.616v6.482q0 .42.07.63.083.196.308.266.223.07.714.07.042 0 .042.084t-.042.084q-.49 0-.784-.014l-1.078-.014-1.26.014q-.252.015-.686.014-.042 0-.042-.084t.042-.084q.517 0 .756-.07a.47.47 0 0 0 .322-.266q.084-.195.084-.63zm-5.348 2.842h6.062v.392h-6.062zm-.728-2.87q0-.42-.084-.616a.47.47 0 0 0-.308-.266q-.21-.084-.686-.084-.042 0-.042-.084t.042-.084l.756.014q.643.028 1.036.028.531 0 1.232-.028l.77-.014q.028 0 .028.084t-.028.084q-.504 0-.742.084a.55.55 0 0 0-.336.294q-.084.196-.084.616v6.454q0 .42.084.63a.47.47 0 0 0 .322.266q.237.07.756.07.028 0 .028.084t-.028.084q-.49 0-.784-.014l-1.218-.014-1.05.014q-.28.015-.77.014-.028 0-.028-.084t.028-.084q.489 0 .714-.07a.47.47 0 0 0 .308-.266q.084-.21.084-.63zm15.969 7.784q-1.302 0-2.324-.602a4.3 4.3 0 0 1-1.568-1.652 4.9 4.9 0 0 1-.546-2.282q0-1.442.728-2.464a4.55 4.55 0 0 1 1.862-1.554 5.6 5.6 0 0 1 2.338-.518q1.33 0 2.338.63 1.008.616 1.54 1.638.546 1.022.546 2.17 0 1.275-.672 2.338a4.8 4.8 0 0 1-1.806 1.68 5 5 0 0 1-2.436.616m.462-.35q.784 0 1.4-.448.63-.462.98-1.33.35-.882.35-2.1 0-1.288-.392-2.296-.391-1.021-1.134-1.596-.742-.574-1.736-.574-1.274 0-1.96.966-.686.952-.686 2.674 0 1.357.406 2.436.42 1.065 1.134 1.666a2.5 2.5 0 0 0 1.638.602m9.795-1.008q0 .364.056.532a.33.33 0 0 0 .21.21q.168.056.532.056h.476q1.092 0 1.89-.574.798-.589 1.064-1.582 0-.028.056-.028.027 0 .056.028.042.015.042.028a26 26 0 0 0-.126 2.31q0 .112-.056.168-.043.042-.154.042h-6.608q-.028 0-.028-.084t.028-.084q.447 0 .644-.07a.42.42 0 0 0 .28-.266q.084-.21.084-.63v-6.482q0-.42-.084-.616a.42.42 0 0 0-.28-.266q-.21-.084-.644-.084-.028 0-.028-.084t.028-.084l.714.014q.644.028 1.064.028t1.064-.028l.714-.014q.042 0 .042.084t-.042.084q-.434 0-.644.084a.42.42 0 0 0-.28.28q-.07.195-.07.616zm11.451 1.358q-1.302 0-2.324-.602a4.3 4.3 0 0 1-1.568-1.652 4.9 4.9 0 0 1-.546-2.282q0-1.442.728-2.464a4.55 4.55 0 0 1 1.862-1.554 5.6 5.6 0 0 1 2.338-.518q1.33 0 2.338.63 1.008.616 1.54 1.638.546 1.022.546 2.17 0 1.275-.672 2.338a4.8 4.8 0 0 1-1.806 1.68 5 5 0 0 1-2.436.616m.462-.35q.783 0 1.4-.448.63-.462.98-1.33.35-.882.35-2.1 0-1.288-.392-2.296-.393-1.021-1.134-1.596-.743-.574-1.736-.574-1.275 0-1.96.966-.686.952-.686 2.674 0 1.357.406 2.436.42 1.065 1.134 1.666a2.5 2.5 0 0 0 1.638.602m12.706.35q-1.596 0-2.772-.588-1.176-.602-1.806-1.624a4.24 4.24 0 0 1-.63-2.268q0-1.33.7-2.38.715-1.05 1.96-1.624 1.246-.588 2.8-.588.672 0 1.344.112.673.098 1.078.266.155.056.168.098.028.028.042.224l.182 1.946q0 .042-.084.056-.069.014-.084-.042a4.5 4.5 0 0 0-.588-1.008 3.8 3.8 0 0 0-1.064-.952q-.657-.405-1.526-.406-.895 0-1.638.49-.741.49-1.176 1.4-.42.91-.42 2.114 0 1.315.49 2.352.504 1.035 1.386 1.61a3.57 3.57 0 0 0 1.988.574q.575 0 .882-.126.309-.126.448-.49.14-.364.14-1.078 0-.727-.084-1.008a.55.55 0 0 0-.364-.392q-.265-.098-.952-.098-.084 0-.084-.112a.2.2 0 0 1 .014-.07q.029-.042.056-.042 1.191.07 1.932.07.714 0 1.484-.042.056 0 .056.098.015.098-.056.098-.252-.015-.364.098-.097.097-.126.42-.027.322-.028 1.12 0 .63.042.896.056.266.056.336 0 .084-.028.112a.3.3 0 0 1-.126.056q-1.805.392-3.248.392m9.205-1.302q0 .435.07.63.07.196.266.266.21.07.658.07.042 0 .042.084t-.042.084q-.462 0-.728-.014l-1.064-.014-1.036.014q-.28.015-.756.014-.028 0-.028-.084t.028-.084q.447 0 .658-.07a.42.42 0 0 0 .28-.266q.084-.21.084-.63v-6.482q0-.42-.084-.616a.42.42 0 0 0-.28-.266q-.21-.084-.658-.084-.028 0-.028-.084t.028-.084l.756.014q.643.028 1.036.028.433 0 1.078-.028l.714-.014q.042 0 .042.084t-.042.084q-.434 0-.644.084a.46.46 0 0 0-.28.294q-.07.196-.07.616zm9.265-7.77q.658 0 1.33.112.686.098 1.092.266.126.042.154.112a.44.44 0 0 1 .056.21l.182 1.946q0 .042-.07.056t-.098-.042q-.392-1.148-1.12-1.75-.728-.615-1.75-.616a2.95 2.95 0 0 0-1.708.518q-.743.504-1.176 1.456-.42.953-.42 2.226 0 1.288.434 2.268.449.966 1.218 1.498.784.518 1.792.518.966 0 1.624-.518.658-.532 1.246-1.736.013-.042.084-.028.07.014.07.056l-.21 1.736a1 1 0 0 1-.056.224q-.028.041-.154.098a7.7 7.7 0 0 1-2.604.462q-1.498 0-2.688-.56-1.176-.575-1.848-1.596t-.672-2.324q0-1.33.686-2.366.7-1.05 1.904-1.638 1.218-.588 2.702-.588m10.985.504q.042-.07.028-.084 0-.028-.098-.028-1.596 0-2.436.126-.826.113-1.358.504-.532.378-.924 1.19-.014.015-.056.014-.126 0-.112-.056l.56-2.436q0-.014.056-.014.14 0 .112.042a.4.4 0 0 0-.014.112q0 .168.154.224.168.056.658.056h5.11q.07 0 .098.07.042.07 0 .112l-4.844 8.19q-.055.07-.042.098.014.014.098.014h2.828q.504 0 .98-.252a2.7 2.7 0 0 0 .812-.7 2.1 2.1 0 0 0 .42-.924q.014-.042.084-.042t.07.042l-.196 2.03q0 .041-.042.098a.1.1 0 0 1-.084.042A561 561 0 0 0 186.63 54q-.055 0-.084-.056a.12.12 0 0 1 .014-.126zm6.181-.028.42.028v6.622q0 .742.308 1.176.308.435.854.434.028 0 .028.084t-.028.084q-.392 0-.602-.014l-.756-.014-.868.014q-.239.015-.686.014-.042 0-.042-.084t.042-.084q.615 0 .966-.434.363-.434.364-1.176zm7.14 8.638q0 .042-.07.056-.057.015-.084-.014l-6.902-7.854q-.49-.56-.84-.77a1.4 1.4 0 0 0-.714-.21q-.028 0-.028-.084t.028-.084l.588.014q.181.014.532.014l1.064-.014q.195-.015.476-.014.111 0 .168.056.055.056.196.238.237.323.336.434l5.138 5.922zm0 0-.406-.42v-6.748q0-.755-.308-1.19a.99.99 0 0 0-.854-.434q-.028 0-.028-.084t.028-.084l.602.014q.447.028.756.028.28 0 .784-.028l.63-.014q.027 0 .028.084 0 .084-.028.084-.561 0-.882.448-.322.434-.322 1.176zm5.661-3.808h4.032l.098.392h-4.34zm7.434 3.43q.07 0 .07.084t-.07.084q-.28 0-.868-.028a22 22 0 0 0-.882-.028q-.35 0-.854.028-.477.028-.756.028-.056 0-.056-.084t.056-.084q.363 0 .518-.07a.29.29 0 0 0 .168-.28q0-.239-.28-.798l-2.842-5.614.686-1.204-2.786 6.146q-.183.406-.182.756 0 .504.35.784.363.28.966.28.07 0 .07.084t-.07.084q-.252 0-.728-.028a18 18 0 0 0-.924-.028q-.379 0-.91.028-.477.028-.77.028-.057 0-.056-.084 0-.084.056-.084.391 0 .658-.154.265-.168.532-.574.265-.42.63-1.232l3.038-6.678q.027-.042.126-.042.111 0 .126.042l3.5 6.888q.49.994.812 1.372.321.378.672.378M12.321 28.43q0 1.344.294 1.974.336.588 1.218.84.924.252 2.856.252.126 0 .126.252t-.126.252a66 66 0 0 1-2.688-.042l-3.654-.042-3.024.042Q6.525 32 5.139 32q-.126 0-.126-.252t.126-.252q1.428 0 2.058-.21.672-.21.882-.798.252-.63.252-1.89V9.152q0-1.26-.252-1.848-.21-.588-.882-.798-.672-.252-2.058-.252-.126 0-.126-.252t.126-.252l2.184.042q1.848.084 2.982.084.966 0 2.352-.126.504-.042 1.344-.084a44 44 0 0 1 2.058-.042q4.116 0 6.552 1.764t2.436 5.418q0 2.646-1.386 4.494a8.3 8.3 0 0 1-3.486 2.772q-2.1.924-4.326.924-1.176 0-2.016-.21-.084 0-.084-.21 0-.126.042-.252.084-.126.168-.084.63.168 1.47.168 2.184 0 3.696-1.806t1.512-5.166q0-3.318-1.554-5.124-1.512-1.848-4.284-1.848-1.008 0-1.554.21-.504.21-.714.798-.21.546-.21 1.764zm24.823-8.316q2.268-2.688 3.612-3.696 1.344-1.05 2.394-1.05.924 0 1.806.63t.882 1.512q0 .798-.462 1.302-.462.462-1.302.462-.546 0-.882-.21a4.5 4.5 0 0 1-.756-.63 3.4 3.4 0 0 0-.672-.546 1.2 1.2 0 0 0-.714-.21q-.546 0-1.26.546-.672.546-2.352 2.394zM32.65 32q-.126 0-.126-.252t.126-.252q1.428 0 1.89-.588t.462-2.31v-8.022q0-1.344-.336-1.974-.294-.63-1.008-.63-.63 0-2.1.63h-.042q-.168 0-.252-.21t.042-.252l5.502-2.688q.252-.084.294-.084.462 0 .882 1.05t.42 2.73v9.45q0 1.176.336 1.806.336.588 1.134.84.84.252 2.394.252.168 0 .168.252t-.168.252Q40.84 32 40 31.958l-3.276-.042-2.436.042Q33.7 32 32.65 32m29.737-15.33q.168-.294-.21-.294-3.906 0-6.048.966t-2.898 3.234q0 .084-.168.084a.8.8 0 0 1-.252-.042q-.126-.084-.084-.126l1.68-6.216q0-.042.168-.042.336 0 .294.168a2.3 2.3 0 0 0-.084.462q0 .546.504.756.504.168 1.638.168h9.408q.168 0 .252.168.126.168.084.336l-9.702 14.7q-.126.294.21.294 3.15 0 4.998-.42 1.89-.42 2.898-1.386 1.008-1.008 1.47-2.772.042-.084.252-.084.252 0 .252.084l-.084 4.83a.56.56 0 0 1-.126.336.4.4 0 0 1-.294.126H53.063q-.168 0-.294-.168a.36.36 0 0 1 0-.336zm20.171 15.834q-2.562 0-4.452-1.134-1.848-1.134-2.856-2.982a8.5 8.5 0 0 1-.966-3.99q0-2.478 1.218-4.536a8.76 8.76 0 0 1 3.318-3.234q2.142-1.218 4.746-1.218 2.52 0 3.864 1.218 1.386 1.218 1.386 3.612 0 .63-.126.924-.084.294-.336.294H84.91q.21-5.208-2.856-5.208-1.89 0-2.982 1.722-1.05 1.722-1.05 4.662 0 3.696 1.722 5.88 1.722 2.142 4.872 2.142 1.176 0 1.974-.294t2.1-.966l.084-.042q.084 0 .168.168.126.168.042.252-1.512 1.428-3.066 2.1-1.554.63-3.36.63m-5.796-11.718 9.324-.168v.84l-9.282.042zm22.85-2.814q0 1.344.883 2.226.924.882 2.646 1.806 1.512.84 2.31 1.386.84.546 1.428 1.47.63.924.63 2.226a5.14 5.14 0 0 1-.714 2.646q-.714 1.218-2.142 1.974-1.386.756-3.318.756a8 8 0 0 1-4.242-1.176q-.252-.252-.252-.504l-.084-3.864q0-.126.21-.126.252-.042.294.084.714 2.058 2.142 3.402 1.47 1.344 3.108 1.344 1.05 0 1.638-.546t.588-1.638q0-1.596-.924-2.52-.924-.966-2.688-1.89a35 35 0 0 1-2.226-1.26 5.2 5.2 0 0 1-1.386-1.428q-.546-.924-.546-2.268 0-2.394 1.722-3.57 1.764-1.176 4.242-1.176 1.638 0 3.36.63.378.168.378.462 0 .966-.042 1.512l-.042 2.016q0 .084-.252.084t-.252-.084q0-.84-.672-1.722a5.3 5.3 0 0 0-1.722-1.512q-1.05-.588-2.142-.588-1.932 0-1.932 1.848m21.837 14.532q-1.806 0-3.066-.84-1.218-.882-1.218-2.898v-9.492q0-1.386-.462-1.848-.42-.462-1.68-.462-.042 0-.126-.084a.8.8 0 0 1-.042-.252q0-.126.042-.21.084-.126.126-.126 3.948-.168 4.956-3.402.042-.168.336-.168t.294.168v14.49q0 1.638.798 2.436.84.756 2.31.756 1.764 0 3.318-1.218l.084-.042q.126 0 .21.21.126.168 0 .252-1.554 1.428-2.94 2.1-1.386.63-2.94.63m4.578-14.616q-3.024-.672-6.636-.672v-1.008q2.688 0 6.804-.42.084 0 .168.336.126.294.126.672t-.168.756q-.126.378-.294.336m12.639 2.226q2.268-2.688 3.612-3.696 1.344-1.05 2.394-1.05.924 0 1.806.63t.882 1.512q0 .798-.462 1.302-.462.462-1.302.462-.546 0-.882-.21a4.5 4.5 0 0 1-.756-.63 3.4 3.4 0 0 0-.672-.546 1.2 1.2 0 0 0-.714-.21q-.546 0-1.26.546-.672.546-2.352 2.394zM134.172 32q-.126 0-.126-.252t.126-.252q1.428 0 1.89-.588t.462-2.31v-8.022q0-1.344-.336-1.974-.294-.63-1.008-.63-.63 0-2.1.63h-.042q-.168 0-.252-.21t.042-.252l5.502-2.688q.252-.084.294-.084.462 0 .882 1.05t.42 2.73v9.45q0 1.176.336 1.806.336.588 1.134.84.84.252 2.394.252.168 0 .168.252t-.168.252q-1.428 0-2.268-.042l-3.276-.042-2.436.042q-.588.042-1.638.042m29.737-15.33q.168-.294-.21-.294-3.906 0-6.048.966t-2.898 3.234q0 .084-.168.084a.8.8 0 0 1-.252-.042q-.126-.084-.084-.126l1.68-6.216q0-.042.168-.042.336 0 .294.168a2.3 2.3 0 0 0-.084.462q0 .546.504.756.504.168 1.638.168h9.408q.168 0 .252.168.126.168.084.336l-9.702 14.7q-.126.294.21.294 3.15 0 4.998-.42 1.89-.42 2.898-1.386 1.008-1.008 1.47-2.772.042-.084.252-.084.252 0 .252.084l-.084 4.83a.56.56 0 0 1-.126.336.4.4 0 0 1-.294.126h-13.482q-.168 0-.294-.168a.36.36 0 0 1 0-.336zm20.171 15.834q-2.562 0-4.452-1.134-1.848-1.134-2.856-2.982a8.5 8.5 0 0 1-.966-3.99q0-2.478 1.218-4.536a8.76 8.76 0 0 1 3.318-3.234q2.142-1.218 4.746-1.218 2.52 0 3.864 1.218 1.386 1.218 1.386 3.612 0 .63-.126.924-.084.294-.336.294h-3.444q.21-5.208-2.856-5.208-1.89 0-2.982 1.722-1.05 1.722-1.05 4.662 0 3.696 1.722 5.88 1.722 2.142 4.872 2.142 1.176 0 1.974-.294t2.1-.966l.084-.042q.084 0 .168.168.126.168.042.252-1.512 1.428-3.066 2.1-1.554.63-3.36.63m-5.796-11.718 9.324-.168v.84l-9.282.042zM209.451 32q-.126 0-.126-.252t.126-.252q1.428 0 1.89-.588t.462-2.31v-6.3q0-2.352-.882-3.444-.84-1.134-2.688-1.134-1.386 0-2.814.756a6.56 6.56 0 0 0-2.268 2.016l-.21-.504q3.36-4.704 7.392-4.704 2.31 0 3.57 1.386 1.302 1.386 1.302 3.822v8.106q0 1.722.462 2.31.504.588 1.932.588.126 0 .126.252t-.126.252q-1.05 0-1.68-.042l-2.394-.042-2.394.042q-.63.042-1.68.042m-11.298 0q-.126 0-.126-.252t.126-.252q1.428 0 1.89-.588t.462-2.31v-8.022q0-1.344-.336-1.974-.294-.63-1.008-.63-.63 0-2.1.63h-.042q-.168 0-.252-.21t.042-.252l5.502-2.688q.252-.084.294-.084.462 0 .882 1.05t.42 2.73v9.45q0 1.722.462 2.31.504.588 1.932.588.126 0 .126.252t-.126.252q-1.05 0-1.68-.042l-2.394-.042-2.436.042q-.588.042-1.638.042m9.744-19.908q0 .084-.168.084a.8.8 0 0 1-.252-.042q-.084-.084-.042-.126l1.638-10.08q.084-.168 1.218-.378 1.134-.252 1.89-.252.504 0 .462.168z" />
</svg>